<svg xmlns="http://www.w3.org/2000/svg" version="1.1" xmlns:xlink="http://www.w3.org/1999/xlink" xmlns:svgjs="http://svgjs.dev/svgjs" width="1440" height="560" preserveAspectRatio="none" viewBox="0 0 1440 560"><g mask="url(&quot;#SvgjsMask1042&quot;)" fill="none"><rect width="1440" height="560" x="0" y="0" fill="rgba(24, 26, 34, 1)"></rect><path d="M1464 560L0 560 L0 392.62Q73.85 346.47, 120 420.32Q188.28 368.6, 240 436.87Q254.16 379.03, 312 393.19Q358.75 367.94, 384 414.7Q460.75 371.45, 504 448.21Q534.5 406.72, 576 437.22Q594.18 383.4, 648 401.59Q719.16 352.75, 768 423.92Q811.05 394.97, 840 438.02Q861.58 387.6, 912 409.17Q965.48 342.65, 1032 396.14Q1110.32 354.45, 1152 432.77Q1199.26 360.03, 1272 407.3Q1324.59 339.89, 1392 392.48Q1441.43 369.91, 1464 419.34z" fill="#182f5d"></path><path d="M1560 560L0 560 L0 460.28Q46.93 435.2, 72 482.13Q90.51 428.64, 144 447.15Q188.35 419.5, 216 463.84Q260.53 436.37, 288 480.9Q306.1 427, 360 445.1Q406.31 419.42, 432 465.73Q503.12 416.85, 552 487.97Q569.59 433.56, 624 451.14Q652.38 407.51, 696 435.89Q773.66 393.55, 816 471.21Q859.91 443.12, 888 487.03Q907.76 434.79, 960 454.55Q1001.54 424.09, 1032 465.63Q1055.14 416.77, 1104 439.92Q1158.38 422.3, 1176 476.68Q1241.59 422.26, 1296 487.85Q1308.21 428.06, 1368 440.28Q1414.22 414.5, 1440 460.73Q1510.51 411.25, 1560 481.76z" fill="#25467d"></path><path d="M1464 560L0 560 L0 502.78Q39.55 470.32, 72 509.87Q119.58 485.45, 144 533.03Q153.1 470.13, 216 479.22Q284.15 427.38, 336 495.53Q389.53 477.06, 408 530.59Q440.99 443.58, 528 476.56Q593.97 422.53, 648 488.5Q696.88 465.38, 720 514.25Q787.35 461.6, 840 528.94Q854.11 471.05, 912 485.15Q984.18 437.33, 1032 509.51Q1097.64 455.15, 1152 520.8Q1199.2 448, 1272 495.2Q1326.21 429.41, 1392 483.62Q1449.55 469.17, 1464 526.71z" fill="#356cb1"></path><path d="M1512 560L0 560 L0 571.94Q56.37 508.31, 120 564.68Q142 514.68, 192 536.69Q257.62 482.31, 312 547.92Q358.37 522.29, 384 568.66Q425.34 490, 504 531.34Q547.02 502.36, 576 545.38Q644.32 493.7, 696 562.03Q740.67 486.7, 816 531.37Q857.07 500.44, 888 541.51Q962.9 496.41, 1008 571.32Q1058.63 501.96, 1128 552.59Q1154.13 506.73, 1200 532.86Q1254.82 515.68, 1272 570.5Q1321.68 500.18, 1392 549.86Q1441.89 479.75, 1512 529.64z" fill="white"></path></g><defs><mask id="SvgjsMask1042"><rect width="1440" height="560" fill="#ffffff"></rect></mask></defs></svg>